<?xml version="1.0" encoding="UTF-8"?>
<svg id="Layer_1" xmlns="http://www.w3.org/2000/svg" version="1.1" xmlns:xlink="http://www.w3.org/1999/xlink" viewBox="0 0 193.3 383.8">
  <!-- Generator: Adobe Illustrator 29.3.0, SVG Export Plug-In . SVG Version: 2.1.0 Build 146)  -->
  <defs>
    <style>
      .st0 {
        fill: #a62aff;
      }

      .st1 {
        fill: #47ff00;
      }

      .st2 {
        fill: #fff;
      }

      .st3 {
        fill: none;
      }

      .st4 {
        fill: #040020;
      }

      .st5 {
        fill: #860dff;
      }

      .st6 {
        fill: #001620;
      }

      .st7 {
        fill: #201600;
      }

      .st8 {
        fill: #180220;
      }
    </style>
  </defs>
  <g>
    <polygon class="st2" points="10.5 157.1 178.2 157.1 150.1 374.2 38.6 374.2 10.5 157.1"/>
    <path class="st7" d="M150.1,377.1H38.6c-1.5,0-2.7-1.1-2.9-2.5L7.6,157.5c-.1-.8.1-1.7.7-2.3s1.4-1,2.2-1h167.7c.8,0,1.6.4,2.2,1s.8,1.5.7,2.3l-28.1,217c-.2,1.4-1.4,2.5-2.9,2.5ZM41.2,371.2h106.3l27.3-211.2H13.9l27.3,211.2Z"/>
  </g>
  <g>
    <rect class="st1" x="-98" y="177.7" width="370.3" height="16.3" transform="translate(-112.5 233.9) rotate(-78.4)"/>
    <path class="st6" d="M57.9,371.8c-.2,0-.4,0-.6,0l-16-3.3c-.8-.2-1.4-.6-1.9-1.3s-.6-1.4-.4-2.2L113.5,2.3c.2-.8.6-1.4,1.3-1.9s1.4-.6,2.2-.4l16,3.3c1.6.3,2.6,1.9,2.3,3.5L60.8,369.5c-.2.8-.6,1.4-1.3,1.9-.5.3-1,.5-1.6.5ZM45.4,363.3l10.3,2.1L128.9,8.5l-10.3-2.1L45.4,363.3Z"/>
  </g>
  <g>
    <path class="st5" d="M17,207.4s19.5,16.6,47.3,16c21.7-.5,30-20.6,61.9-20.6s43.2,21.3,43.2,21.3l-19.4,150.2H38.6l-21.6-166.8Z"/>
    <path class="st8" d="M150.1,377.1H38.6c-1.5,0-2.7-1.1-2.9-2.5L14.1,207.7c-.2-1.2.4-2.4,1.5-2.9s2.4-.4,3.3.3c.1.1,4.9,4.1,12.8,7.9,7.3,3.5,18.9,7.7,32.6,7.4,9-.2,15.4-4,23-8.5,9.6-5.7,20.6-12.2,39-12.2s12.8,1.2,19,3.5c4.9,1.9,9.7,4.4,14.3,7.7,7.7,5.5,12.1,11,12.3,11.2.5.6.7,1.4.6,2.2l-19.4,150.2c-.2,1.5-1.4,2.6-2.9,2.6ZM41.2,371.2h106.3l18.9-146.3c-1.5-1.7-5.1-5.5-10.4-9.3-9.4-6.6-19.4-10-29.7-10-16.9,0-26.6,5.8-36.1,11.3-7.9,4.7-15.3,9.1-25.8,9.3-15,.3-27.5-4.2-35.5-8-3.3-1.6-6-3.2-8.2-4.6l20.4,157.6Z"/>
  </g>
  <g>
    <rect class="st2" x="2.9" y="148.3" width="181.6" height="15.2"/>
    <path class="st7" d="M184.5,166.4H2.9c-1.6,0-2.9-1.3-2.9-2.9v-15.2c0-1.6,1.3-2.9,2.9-2.9h181.6c1.6,0,2.9,1.3,2.9,2.9v15.2c0,1.6-1.3,2.9-2.9,2.9ZM5.9,160.5h175.7v-9.3H5.9v9.3Z"/>
  </g>
  <path class="st7" d="M178.2,151.2H10.5c-1.6,0-2.9-1.3-2.9-2.9,0-8.5,1.7-16.8,4.9-24.5,3.2-7.5,7.7-14.2,13.5-20s12.5-10.3,20-13.5c7.8-3.3,16-4.9,24.5-4.9h47.4c8.5,0,16.8,1.7,24.5,4.9,7.5,3.2,14.2,7.7,20,13.5s10.3,12.5,13.5,20c3.3,7.8,4.9,16,4.9,24.5,0,1.6-1.3,2.9-2.9,2.9ZM13.5,145.3h161.7c-1.5-30.2-26.6-54.3-57.1-54.3h-47.4c-30.6,0-55.6,24.1-57.1,54.3Z"/>
  <g>
    <circle class="st0" cx="139.5" cy="235.6" r="9.5"/>
    <path class="st4" d="M139.5,248c-6.8,0-12.4-5.6-12.4-12.4s5.6-12.4,12.4-12.4,12.4,5.6,12.4,12.4-5.6,12.4-12.4,12.4ZM139.5,229.1c-3.6,0-6.5,2.9-6.5,6.5s2.9,6.5,6.5,6.5,6.5-2.9,6.5-6.5-2.9-6.5-6.5-6.5Z"/>
  </g>
  <g>
    <circle class="st0" cx="134.2" cy="275.1" r="9.5"/>
    <path class="st4" d="M134.2,287.5c-6.8,0-12.4-5.6-12.4-12.4s5.6-12.4,12.4-12.4,12.4,5.6,12.4,12.4-5.6,12.4-12.4,12.4ZM134.2,268.6c-3.6,0-6.5,2.9-6.5,6.5s2.9,6.5,6.5,6.5,6.5-2.9,6.5-6.5-2.9-6.5-6.5-6.5Z"/>
  </g>
  <g>
    <circle class="st0" cx="110.3" cy="259.5" r="6.1"/>
    <path class="st4" d="M110.3,268.6c-5,0-9.1-4.1-9.1-9.1s4.1-9.1,9.1-9.1,9.1,4.1,9.1,9.1-4.1,9.1-9.1,9.1ZM110.3,256.3c-1.8,0-3.2,1.4-3.2,3.2s1.4,3.2,3.2,3.2,3.2-1.4,3.2-3.2-1.4-3.2-3.2-3.2Z"/>
  </g>
  <g>
    <path class="st2" d="M22.5,137.8s0-12.1,11.3-23.2c8.1-8,21.2-13.6,21.2-13.6"/>
    <path class="st7" d="M22.5,140.7c-1.6,0-2.9-1.3-2.9-2.9s.1-13.5,12.2-25.3c8.3-8.2,21.6-13.9,22.2-14.2,1.5-.6,3.2,0,3.8,1.6.6,1.5,0,3.2-1.6,3.8-.1,0-12.8,5.5-20.3,13-4.3,4.2-7.3,9.1-9.1,14.4-1.3,4-1.3,6.8-1.3,6.8,0,1.6-1.3,2.9-2.9,2.9Z"/>
  </g>
  <g>
    <line class="st3" x1="31.1" y1="235.6" x2="45" y2="347"/>
    <path class="st7" d="M45,349.9c-1.4,0-2.7-1.1-2.9-2.6l-13.9-111.4c-.2-1.6.9-3.1,2.5-3.3,1.6-.2,3.1.9,3.3,2.5l13.9,111.4c.2,1.6-.9,3.1-2.5,3.3-.1,0-.2,0-.4,0Z"/>
  </g>
</svg>